<?xml version="1.0" standalone="no"?>
<!DOCTYPE svg PUBLIC "-//W3C//DTD SVG 20010904//EN"
 "http://www.w3.org/TR/2001/REC-SVG-20010904/DTD/svg10.dtd">
<svg version="1.0" xmlns="http://www.w3.org/2000/svg"
 width="371.000000pt" height="371.000000pt" viewBox="0 0 371.000000 371.000000"
 preserveAspectRatio="xMidYMid meet">
<metadata>
Created by potrace 1.14, written by Peter Selinger 2001-2017
</metadata>
<g transform="translate(0.000000,371.000000) scale(0.100000,-0.100000)"
fill="#000000" stroke="none">
<path d="M1530 3570 c0 -7 17 -33 38 -59 47 -56 162 -227 162 -240 0 -5 4 -11
8 -13 4 -1 23 -28 41 -58 19 -30 37 -57 40 -60 19 -14 121 -191 121 -210 0 -3
-24 -31 -54 -62 -62 -66 -53 -71 -107 71 -34 91 -57 121 -92 121 -12 0 -31 6
-42 14 -34 23 -110 -1 -119 -39 -10 -39 15 -187 35 -209 5 -6 9 -17 9 -25 0
-16 -41 24 -110 109 -131 160 -205 239 -321 341 -35 31 -84 75 -108 98 -24 22
-49 41 -57 41 -28 0 -66 -46 -71 -86 -4 -37 -1 -43 43 -87 27 -26 52 -47 56
-47 4 0 8 -7 8 -16 0 -8 5 -12 10 -9 6 3 10 1 10 -5 0 -12 198 -210 211 -210
10 0 59 -48 59 -58 0 -4 19 -28 43 -53 114 -125 184 -221 211 -292 10 -26 22
-47 27 -47 5 0 9 -8 9 -17 0 -12 -20 3 -58 42 -61 64 -141 135 -151 135 -5 0
-102 94 -133 130 -39 45 -121 155 -140 188 -11 20 -29 51 -39 67 -10 17 -28
48 -40 71 -32 61 -49 68 -96 38 -44 -29 -83 -81 -83 -110 1 -10 19 -44 41 -74
21 -30 58 -82 81 -115 58 -84 139 -178 304 -351 17 -18 29 -36 26 -39 -3 -3
-1 -5 5 -5 6 0 33 -23 61 -51 42 -41 55 -49 74 -44 21 7 22 6 7 -9 -8 -9 -26
-18 -38 -21 -13 -2 -26 -7 -29 -9 -8 -9 -30 20 -61 80 -16 33 -47 75 -68 95
-45 43 -107 81 -116 72 -4 -3 -7 -2 -7 3 0 10 -35 17 -78 16 -23 0 -72 -44
-72 -64 0 -6 9 -26 21 -44 19 -31 19 -33 2 -27 -26 9 -73 64 -66 77 3 6 3 8
-1 4 -4 -3 -16 2 -27 13 -20 20 -48 25 -50 9 -5 -46 9 -148 22 -156 5 -3 9
-16 9 -29 0 -13 4 -26 9 -29 5 -3 12 -21 15 -40 5 -23 26 -56 65 -98 124 -133
148 -162 121 -148 -14 7 -27 16 -30 19 -12 15 -74 53 -141 88 -85 43 -143 49
-199 19 -19 -10 -48 -25 -63 -33 -38 -20 -64 -60 -51 -81 6 -9 39 -25 75 -37
75 -25 150 -55 164 -65 6 -4 26 -11 45 -15 19 -4 45 -16 58 -28 l22 -21 -37
-14 c-54 -20 -68 -19 -163 17 -107 41 -168 62 -189 66 -17 3 -179 59 -211 72
-52 22 -65 4 -43 -62 30 -89 57 -126 111 -155 29 -14 292 -102 310 -103 17 0
15 -26 -2 -33 -22 -8 -39 -59 -31 -93 4 -17 11 -31 15 -31 5 0 28 -13 52 -29
48 -32 178 -91 201 -91 9 0 22 -7 31 -15 13 -13 13 -20 1 -48 -13 -32 -13 -32
52 -102 36 -38 91 -98 122 -131 63 -69 243 -262 281 -303 14 -15 52 -56 85
-92 33 -36 126 -134 206 -219 81 -85 167 -177 193 -204 25 -27 46 -45 46 -41
0 5 14 -10 31 -33 17 -23 33 -42 35 -42 3 0 21 7 42 16 20 10 42 18 49 19 18
4 92 57 303 215 107 80 236 175 285 210 143 102 464 354 534 420 61 57 64 61
52 86 -12 26 -55 105 -279 504 -64 113 -122 220 -131 238 -8 17 -19 32 -23 32
-4 0 -8 5 -8 11 0 6 -16 38 -36 72 -20 34 -44 76 -54 92 -9 17 -31 54 -49 83
-17 29 -31 55 -31 58 0 3 -15 28 -33 57 -18 29 -46 78 -62 109 -54 105 -51
103 -118 68 -32 -16 -64 -30 -71 -30 -14 0 -47 63 -52 100 -1 14 -6 54 -9 90
-4 36 -9 74 -11 85 -2 11 -4 38 -5 60 -1 22 -10 68 -21 101 l-18 62 -43 -10
c-23 -5 -54 -21 -69 -35 l-27 -25 -50 102 c-60 119 -103 183 -135 198 -13 6
-37 34 -55 64 -30 50 -88 134 -132 188 -11 14 -29 37 -40 53 -18 24 -71 54
-104 61 -5 1 -15 5 -21 9 -6 3 -37 9 -68 13 -42 5 -56 4 -56 -6z"/>
</g>
</svg>
